<?xml version="1.0" ?>
<svg>
  <polygon fill="None" points="-0.10071427375078201,0.4825892746448517 -0.10675991326570511,0.4824298918247223 -0.1085517629981041,0.48232176899909973 -0.10961347073316574,0.47712984681129456 -0.1090272068977356,0.47539421916007996 -0.10971074551343918,0.473799467086792 -0.10913848876953125,0.4718511402606964 -0.11049134284257889,0.47128763794898987 -0.11400217562913895,0.46953511238098145 -0.12548920512199402,0.4622092545032501 -0.1263003796339035,0.46084490418434143 -0.12991806864738464,0.45824116468429565 -0.13303032517433167,0.4567146897315979 -0.13580910861492157,0.4538220763206482 -0.1377037912607193,0.45317599177360535 -0.14259302616119385,0.4495699107646942 -0.14700938761234283,0.44794511795043945 -0.15308047831058502,0.4430640935897827 -0.18967421352863312,0.41719111800193787 -0.19424612820148468,0.41484659910202026 -0.19508147239685059,0.4135410487651825 -0.20125100016593933,0.40911251306533813 -0.20855416357517242,0.404366672039032 -0.21568015217781067,0.399038702249527 -0.22810377180576324,0.39041420817375183 -0.26327183842658997,0.36593618988990784 -0.26898667216300964,0.36180323362350464 -0.27184057235717773,0.359109491109848 -0.2800613045692444,0.35333365201950073 -0.2836533188819885,0.3498673141002655 -0.28976768255233765,0.3453567624092102 -0.29251012206077576,0.3426748812198639 -0.2969224452972412,0.33897924423217773 -0.3111322522163391,0.3261198401451111 -0.3197629749774933,0.3173929452896118 -0.32195642590522766,0.31566429138183594 -0.3262535035610199,0.31110846996307373 -0.3299921452999115,0.3067268431186676 -0.3334762454032898,0.3031070828437805 -0.3395634889602661,0.2959122061729431 -0.34245535731315613,0.2933201193809509 -0.3482760190963745,0.28615450859069824 -0.35158440470695496,0.2826477587223053 -0.355965793132782,0.2772371768951416 -0.36295023560523987,0.267718106508255 -0.38454389572143555,0.2362244427204132 -0.3898080289363861,0.22724802792072296 -0.3905383050441742,0.22543081641197205 -0.40170639753341675,0.20591403543949127 -0.4045224189758301,0.19953981041908264 -0.40817269682884216,0.19229204952716827 -0.414925754070282,0.17718620598316193 -0.41978755593299866,0.16641992330551147 -0.42172715067863464,0.16026674211025238 -0.4232483506202698,0.15754179656505585 -0.42343929409980774,0.15572594106197357 -0.4250693619251251,0.1513383388519287 -0.4268428683280945,0.14772216975688934 -0.4303624927997589,0.13616414368152618 -0.4320177137851715,0.13244503736495972 -0.44057780504226685,0.10042215138673782 -0.44210708141326904,0.09609740227460861 -0.44552740454673767,0.08260250091552734 -0.4455905854701996,0.07996547967195511 -0.44647786021232605,0.0780138298869133 -0.44742754101753235,0.07116963714361191 -0.44899865984916687,0.0662936344742775 -0.45163074135780334,0.05046601966023445 -0.452406108379364,0.04067693278193474 -0.45381736755371094,0.032782528549432755 -0.45467618107795715,0.01930062472820282 -0.45545098185539246,0.016459383070468903 -0.4563761353492737,-0.00032239643041975796 -0.4576089680194855,-0.0007702963775955141 -0.463378369808197,-0.002449417021125555 -0.46327584981918335,-0.008641814813017845 -0.46310603618621826,-0.025575093924999237 -0.46282339096069336,-0.0344085693359375 -0.45784810185432434,-0.03565025329589844 -0.4556196331977844,-0.03991590067744255 -0.4554133117198944,-0.049480874091386795 -0.4545699656009674,-0.05303142964839935 -0.4544543921947479,-0.06296893209218979 -0.4480813145637512,-0.10668787360191345 -0.44657525420188904,-0.11383296549320221 -0.44566312432289124,-0.11569154262542725 -0.44180983304977417,-0.13422857224941254 -0.43131622672080994,-0.1691197007894516 -0.4287388324737549,-0.17547008395195007 -0.4267706274986267,-0.1817484200000763 -0.4252634346485138,-0.18436704576015472 -0.41792240738868713,-0.20223072171211243 -0.4091495871543884,-0.22173064947128296 -0.4040180742740631,-0.23170128464698792 -0.4012821912765503,-0.236155703663826 -0.39849141240119934,-0.24147894978523254 -0.39136144518852234,-0.2537389397621155 -0.37547510862350464,-0.27929916977882385 -0.3589300811290741,-0.3015774190425873 -0.35180047154426575,-0.3103002905845642 -0.3445208966732025,-0.3192349672317505 -0.3430177569389343,-0.3200843930244446 -0.33917295932769775,-0.3246056139469147 -0.33718040585517883,-0.3272820711135864 -0.3343227803707123,-0.3299046754837036 -0.32724907994270325,-0.33709248900413513 -0.3235405385494232,-0.3409266769886017 -0.32152271270751953,-0.34341734647750854 -0.32006677985191345,-0.34410935640335083 -0.3191963732242584,-0.345968097448349 -0.31737208366394043,-0.3467159867286682 -0.31597504019737244,-0.3487274646759033 -0.31024405360221863,-0.3537895679473877 -0.3076801896095276,-0.35626906156539917 -0.29950204491615295,-0.36381518840789795 -0.2986827790737152,-0.3650297522544861 -0.2923896014690399,-0.37008509039878845 -0.29064273834228516,-0.3710123300552368 -0.2860518991947174,-0.37540358304977417 -0.2770034372806549,-0.38258084654808044 -0.27510228753089905,-0.3833554983139038 -0.2724788784980774,-0.38615718483924866 -0.27090346813201904,-0.3866901397705078 -0.2684280276298523,-0.3891584575176239 -0.26724085211753845,-0.38943052291870117 -0.2611542046070099,-0.3935244381427765 -0.25858113169670105,-0.39612600207328796 -0.25192323327064514,-0.400054395198822 -0.24955520033836365,-0.402260959148407 -0.24865765869617462,-0.4022175371646881 -0.24600601196289062,-0.4038239121437073 -0.24419882893562317,-0.40581151843070984 -0.2396477311849594,-0.40835174918174744 -0.237002894282341,-0.4092443287372589 -0.23524166643619537,-0.41094449162483215 -0.23432928323745728,-0.41095924377441406 -0.23235997557640076,-0.4126783013343811 -0.22819143533706665,-0.41520026326179504 -0.22545689344406128,-0.41610828042030334 -0.22378987073898315,-0.41783806681632996 -0.22268278896808624,-0.41804102063179016 -0.22085784375667572,-0.4197078049182892 -0.21284541487693787,-0.4233507513999939 -0.211176335811615,-0.424934059381485 -0.20223312079906464,-0.4291857182979584 -0.19856354594230652,-0.430341899394989 -0.1933055818080902,-0.43350404500961304 -0.18421794474124908,-0.43735307455062866 -0.18185098469257355,-0.4389808773994446 -0.16509105265140533,-0.44565659761428833 -0.15826399624347687,-0.44839292764663696 -0.1540202498435974,-0.4495560824871063 -0.14600931107997894,-0.4529601037502289 -0.14321166276931763,-0.45451387763023376 -0.14147867262363434,-0.4547305405139923 -0.13787901401519775,-0.45629435777664185 -0.13534368574619293,-0.45798611640930176 -0.13342274725437164,-0.45809096097946167 -0.13095338642597198,-0.4596955478191376 -0.1290368288755417,-0.45955395698547363 -0.1262996345758438,-0.46154338121414185 -0.12386485934257507,-0.4615408778190613 -0.12007846683263779,-0.4632095396518707 -0.11748766154050827,-0.4649377167224884 -0.1156846210360527,-0.46500158309936523 -0.10937445610761642,-0.46737322211265564 -0.10671146959066391,-0.469230979681015 -0.10319963097572327,-0.4696701169013977 -0.10029133409261703,-0.47176361083984375 -0.09865540266036987,-0.471731573343277 -0.09609903395175934,-0.4733619689941406 -0.09430566430091858,-0.47345373034477234 -0.09136257320642471,-0.4751741588115692 -0.08967246860265732,-0.4752320349216461 -0.08350761979818344,-0.4777180254459381 -0.08257923275232315,-0.47867149114608765 -0.08072177320718765,-0.4787379801273346 -0.07891063392162323,-0.4804227650165558 -0.07729516923427582,-0.48023203015327454 -0.07647928595542908,-0.4811585545539856 -0.07187219709157944,-0.4830106496810913 -0.06716390699148178,-0.48299288749694824 -0.05136718600988388,-0.4828988313674927 -0.04946749657392502,-0.4835549592971802 -0.043470874428749084,-0.4834274351596832 -0.040636662393808365,-0.48271387815475464 -0.03812239691615105,-0.48326393961906433 -0.03527635708451271,-0.4825804531574249 -0.025458525866270065,-0.4832073748111725 0.0036299568600952625,-0.48303472995758057 0.05501027777791023,-0.48299920558929443 0.06678701192140579,-0.4830579459667206 0.07094050943851471,-0.4824628531932831 0.07188061624765396,-0.4826459586620331 0.07296807318925858,-0.4814278781414032 0.07364436239004135,-0.4818327724933624 0.07817383110523224,-0.48022276163101196 0.07901671528816223,-0.4788546860218048 0.0816301628947258,-0.47797513008117676 0.08265702426433563,-0.4782724678516388 0.08343157172203064,-0.477003276348114 0.08445984870195389,-0.4772709608078003 0.08613913506269455,-0.47599706053733826 0.08700921386480331,-0.47657841444015503 0.08894892781972885,-0.47485852241516113 0.09075600653886795,-0.47407835721969604 0.09150625020265579,-0.4745804965496063 0.09405522793531418,-0.4729134738445282 0.09604901075363159,-0.4726625680923462 0.09779216349124908,-0.47129756212234497 0.09870322048664093,-0.47175729274749756 0.0995144471526146,-0.47041091322898865 0.10137661546468735,-0.47078922390937805 0.10209301859140396,-0.46971479058265686 0.10578183084726334,-0.46900439262390137 0.10772612690925598,-0.4672029912471771 0.11036273837089539,-0.4670514762401581 0.11487666517496109,-0.4651683270931244 0.1155887097120285,-0.4643133878707886 0.1181417778134346,-0.4631385803222656 0.11919332295656204,-0.4634137749671936 0.12110944837331772,-0.4617166817188263 0.12374327331781387,-0.4615224599838257 0.12537738680839539,-0.45995384454727173 0.12785878777503967,-0.45977675914764404 0.12918788194656372,-0.45885446667671204 0.13078929483890533,-0.4588468372821808 0.13175658881664276,-0.45784682035446167 0.13352732360363007,-0.4578631818294525 0.13620784878730774,-0.45608869194984436 0.13796740770339966,-0.45603495836257935 0.14521609246730804,-0.4525717496871948 0.1476842612028122,-0.4523047208786011 0.15305311977863312,-0.449402391910553 0.15757185220718384,-0.4480130970478058 0.16019439697265625,-0.4466068744659424 0.1665254384279251,-0.4442715346813202 0.17270617187023163,-0.44141682982444763 0.18276585638523102,-0.43709608912467957 0.19601505994796753,-0.43128737807273865 0.20140670239925385,-0.42854854464530945 0.20412467420101166,-0.4268747568130493 0.21200202405452728,-0.42318007349967957 0.21399901807308197,-0.42138922214508057 0.2156461477279663,-0.4213080406188965 0.21741747856140137,-0.4195832312107086 0.21925027668476105,-0.41948285698890686 0.22106263041496277,-0.4176802635192871 0.22548195719718933,-0.41579654812812805 0.22633454203605652,-0.4147188365459442 0.22812293469905853,-0.41380271315574646 0.22914166748523712,-0.41391417384147644 0.2307712584733963,-0.4119609296321869 0.2317274957895279,-0.4121302366256714 0.23346972465515137,-0.41023069620132446 0.2423303872346878,-0.4047659635543823 0.24336133897304535,-0.4045548141002655 0.24508437514305115,-0.4029306173324585 0.24704360961914062,-0.40271443128585815 0.26305803656578064,-0.39179927110671997 0.2674088776111603,-0.38780370354652405 0.2789607048034668,-0.37970852851867676 0.2825813293457031,-0.37595438957214355 0.2915903925895691,-0.36945104598999023 0.2942250967025757,-0.36652135848999023 0.2960093915462494,-0.36582833528518677 0.3003305196762085,-0.3611258864402771 0.30133873224258423,-0.3611640930175781 0.30531594157218933,-0.3569582402706146 0.30667009949684143,-0.3555681109428406 0.31293487548828125,-0.34982535243034363 0.3165321350097656,-0.3472704291343689 0.32108885049819946,-0.3428810238838196 0.3334978520870209,-0.32994264364242554 0.33717280626296997,-0.32637596130371094 0.33969634771347046,-0.32275858521461487 0.34742027521133423,-0.3137359619140625 0.3527863621711731,-0.3084283471107483 0.3549569249153137,-0.3050955533981323 0.35793882608413696,-0.3022395670413971 0.36038196086883545,-0.298700213432312 0.36384379863739014,-0.2941964864730835 0.37880805134773254,-0.2726232707500458 0.3838510811328888,-0.26568761467933655 0.3841954469680786,-0.2637864351272583 0.3853468894958496,-0.26296859979629517 0.3889649510383606,-0.25770002603530884 0.3912637531757355,-0.2531108260154724 0.3949006199836731,-0.24688556790351868 0.3960281312465668,-0.24598640203475952 0.40093982219696045,-0.23624272644519806 0.4017705023288727,-0.23530851304531097 0.40380969643592834,-0.2308071106672287 0.4052148163318634,-0.2291007936000824 0.415924608707428,-0.20651975274085999 0.4190443754196167,-0.2002672553062439 0.42725667357444763,-0.179935023188591 0.43749237060546875,-0.15064282715320587 0.4409532845020294,-0.13861580193042755 0.44121214747428894,-0.13615505397319794 0.4426441788673401,-0.13252028822898865 0.4492288827896118,-0.10248167812824249 0.4517899751663208,-0.08868800848722458 0.4519926905632019,-0.08459620177745819 0.4534109830856323,-0.07716336846351624 0.45368674397468567,-0.07200676947832108 0.45434504747390747,-0.07057326287031174 0.45530351996421814,-0.05647065490484238 0.45607900619506836,-0.05217285081744194 0.45666274428367615,-0.03697428107261658 0.4637589752674103,-0.03443761542439461 0.463759183883667,-0.03257190063595772 0.4636409282684326,-0.026315471157431602 0.46423134207725525,-0.0022248404566198587 0.4575256407260895,-0.00020768301328644156 0.45624271035194397,0.00501703517511487 0.44736185669898987,0.07484637945890427 0.44550466537475586,0.08377821743488312 0.44529539346694946,0.08709894120693207 0.4436360001564026,0.09119745343923569 0.4433865249156952,0.0941244438290596 0.44167131185531616,0.09860747307538986 0.4393209218978882,0.1084851399064064 0.43686437606811523,0.11571884155273438 0.4321715235710144,0.13259263336658478 0.4304421544075012,0.13677416741847992 0.42312753200531006,0.15764768421649933 0.4229415953159332,0.1595233678817749 0.41834595799446106,0.17099088430404663 0.417419970035553,0.17189189791679382 0.41719850897789,0.17362986505031586 0.4145936071872711,0.17898835241794586 0.4123632311820984,0.18446099758148193 0.4100887179374695,0.18881534039974213 0.4079841077327728,0.1943187117576599 0.4024435877799988,0.20569781959056854 0.4010085463523865,0.20745991170406342 0.3952026963233948,0.21920683979988098 0.3832293450832367,0.23882730305194855 0.35872572660446167,0.274649441242218 0.349294513463974,0.286105751991272 0.3317528963088989,0.30582955479621887 0.33079007267951965,0.3075612187385559 0.32283079624176025,0.31564489006996155 0.31007254123687744,0.32764333486557007 0.30838853120803833,0.32974740862846375 0.30231574177742004,0.3354795575141907 0.29687488079071045,0.33970844745635986 0.2905884385108948,0.3448108732700348 0.2897360622882843,0.34610453248023987 0.28434622287750244,0.3501323163509369 0.2808082699775696,0.3535850942134857 0.27347254753112793,0.359070360660553 0.2718989849090576,0.3604620099067688 0.2679915428161621,0.3633526563644409 0.2603435516357422,0.36873868107795715 0.24589838087558746,0.3787342309951782 0.2361813634634018,0.3854803442955017 0.22365237772464752,0.39405593276023865 0.21877528727054596,0.3978756070137024 0.2111033797264099,0.4028264880180359 0.20490984618663788,0.40745121240615845 0.19870229065418243,0.41159945726394653 0.19779707491397858,0.4130026698112488 0.1924610733985901,0.41676121950149536 0.17558163404464722,0.4285222589969635 0.164496511220932,0.43614280223846436 0.14687521755695343,0.4486720561981201 0.14246727526187897,0.4504552483558655 0.1420193314552307,0.4514239728450775 0.1406242996454239,0.45203837752342224 0.1374109536409378,0.4550554156303406 0.13358061015605927,0.45796117186546326 0.1324467808008194,0.4581788182258606 0.12188699096441269,0.4653918743133545 0.11922498792409897,0.4675309956073761 0.11543666571378708,0.46981239318847656 0.11385618150234222,0.4710792005062103 0.11030366271734238,0.4721219837665558 0.10894633829593658,0.4745325446128845 0.10758786648511887,0.48257899284362793 0.10484509915113449,0.4824284613132477 0.09527762234210968,0.48241692781448364 0.06365073472261429,0.48294776678085327 0.019851848483085632,0.48229941725730896 -0.0003932952822651714,0.4822618365287781 -0.007663181982934475,0.48296231031417847 -0.05138683319091797,0.48250895738601685 -0.08778245002031326,0.4828528165817261 -0.09771993011236191,0.48267021775245667 "/>
</svg>
